<?xml version="1.0" standalone="no"?>
<!DOCTYPE svg PUBLIC "-//W3C//DTD SVG 20010904//EN"
 "http://www.w3.org/TR/2001/REC-SVG-20010904/DTD/svg10.dtd">
<svg version="1.0" xmlns="http://www.w3.org/2000/svg"
 width="900.000000pt" height="225.000000pt" viewBox="0 0 900.000000 225.000000"
 preserveAspectRatio="xMidYMid meet">
<metadata>
Created by potrace 1.10, written by Peter Selinger 2001-2011
</metadata>
<g transform="translate(0.000000,225.000000) scale(0.100000,-0.100000)"
fill="#000000" stroke="none">
<path d="M1260 1957 c-20 -17 -69 -57 -109 -87 -40 -30 -81 -62 -90 -71 -10
-8 -55 -44 -102 -79 -46 -35 -100 -77 -120 -94 -20 -17 -51 -42 -70 -56 -18
-14 -50 -40 -70 -57 -20 -18 -41 -33 -47 -33 -6 0 -15 -6 -19 -13 -4 -7 -37
-35 -71 -62 -35 -28 -87 -69 -115 -92 -29 -24 -63 -50 -77 -60 -62 -43 -130
-107 -130 -122 0 -14 16 -19 83 -28 158 -22 204 -30 225 -42 11 -6 41 -11 66
-11 60 0 197 -29 215 -46 13 -12 9 -21 -25 -69 -21 -31 -46 -67 -54 -79 -52
-79 -96 -142 -103 -147 -4 -3 -17 -23 -29 -45 -11 -21 -26 -43 -32 -49 -10 -8
-117 -163 -166 -240 -8 -13 -41 -62 -72 -108 -32 -46 -58 -87 -58 -91 0 -19
36 4 125 80 55 47 114 98 132 112 17 15 58 50 90 78 32 29 126 110 208 180 83
70 152 131 155 134 3 3 39 34 80 69 145 123 184 157 269 230 47 41 97 85 111
97 14 13 62 55 108 94 45 40 82 75 82 80 0 13 -76 20 -339 30 -159 6 -259 14
-267 21 -17 14 -18 55 -3 64 5 4 14 17 20 28 5 12 13 30 19 40 20 34 30 53 55
104 14 28 30 55 35 58 6 3 10 13 10 21 0 8 12 33 27 57 22 35 123 227 123 235
0 1 -8 2 -17 2 -10 0 -34 -15 -53 -33z"/>
<path d="M7725 1855 c-16 -7 -57 -21 -90 -31 -33 -10 -66 -23 -74 -28 -17 -13
-50 -32 -76 -45 -24 -11 -117 -90 -159 -133 -29 -30 -86 -110 -99 -138 -4 -8
-18 -35 -32 -59 -14 -24 -25 -54 -25 -66 0 -11 -5 -26 -11 -32 -17 -17 -41
-132 -46 -223 -5 -88 15 -207 43 -262 8 -14 14 -33 14 -41 0 -22 62 -139 104
-195 19 -26 58 -70 88 -98 52 -50 181 -144 198 -144 4 0 41 -13 81 -30 41 -16
88 -30 105 -30 17 0 51 -7 74 -15 54 -19 136 -19 190 0 23 8 60 15 81 15 21 0
40 4 43 9 3 5 38 19 78 32 40 13 76 27 79 32 3 4 23 17 44 28 54 29 134 100
194 172 54 66 121 189 121 223 0 11 6 26 12 32 19 19 40 117 45 210 l4 82
-375 0 -376 0 0 -115 0 -115 191 -2 c243 -4 243 -4 156 -135 -36 -54 -122
-132 -156 -139 -14 -4 -31 -11 -37 -16 -23 -17 -127 -38 -192 -38 -63 0 -135
16 -178 38 -11 5 -35 18 -55 27 -78 39 -161 133 -215 245 -49 103 -31 410 26
445 6 3 10 15 10 25 0 31 139 164 201 192 158 73 236 74 407 9 54 -20 154
-108 176 -156 l17 -35 169 0 c93 0 171 3 173 8 5 7 -36 91 -87 180 -28 48
-155 171 -206 199 -19 10 -53 30 -75 44 -22 14 -67 33 -100 43 -33 10 -75 25
-93 32 -45 19 -324 18 -367 -1z"/>
<path d="M4054 1851 c-2 -2 -4 -352 -4 -778 l0 -773 160 0 160 0 -2 772 -3
773 -153 5 c-85 3 -156 3 -158 1z"/>
<path d="M2220 1710 l0 -140 298 -2 297 -3 3 -26 c2 -14 -4 -31 -12 -39 -9 -7
-16 -20 -16 -29 -1 -9 -12 -34 -25 -56 -13 -22 -33 -60 -45 -85 -12 -25 -25
-52 -30 -60 -5 -8 -28 -52 -51 -97 -23 -46 -46 -83 -50 -83 -5 0 -9 -8 -9 -17
-1 -10 -12 -36 -25 -58 -14 -22 -28 -47 -31 -55 -3 -8 -17 -35 -29 -60 -13
-25 -42 -81 -65 -125 -22 -44 -44 -87 -49 -95 -4 -8 -16 -31 -26 -50 -43 -85
-117 -226 -125 -240 -5 -8 -11 -22 -14 -30 -3 -8 -13 -25 -22 -38 l-17 -22
577 2 577 3 2 138 2 137 -301 0 c-334 0 -340 1 -311 57 7 15 22 44 32 63 10
19 22 42 26 50 4 8 33 66 65 128 31 61 60 112 65 112 5 0 9 8 9 18 1 9 11 35
24 57 13 22 56 104 96 182 39 79 75 145 81 148 5 4 9 14 9 24 0 10 14 37 30
59 17 23 30 47 30 54 1 7 12 31 25 53 22 37 54 99 69 135 3 8 17 35 31 59 14
24 25 50 25 58 0 11 -98 13 -560 13 l-560 0 0 -140z"/>
<path d="M5157 1843 c-4 -3 -7 -352 -7 -775 l0 -768 160 0 160 0 0 479 c0 337
3 482 11 487 15 9 33 -11 71 -86 19 -36 45 -83 59 -105 13 -22 36 -62 49 -88
35 -69 46 -87 59 -100 6 -6 11 -17 11 -23 0 -7 14 -33 30 -57 17 -25 30 -50
30 -56 0 -6 14 -30 30 -53 17 -22 30 -49 30 -60 0 -10 4 -18 9 -18 5 0 14 -12
20 -27 7 -16 27 -55 46 -88 30 -53 69 -125 100 -186 9 -18 22 -19 173 -19
l162 0 -2 773 -3 772 -150 0 -150 0 -3 -477 -2 -478 -25 0 c-19 0 -30 11 -51
53 -41 78 -63 119 -85 152 -10 17 -21 37 -25 45 -3 8 -10 22 -15 30 -5 8 -14
26 -20 40 -6 14 -21 39 -35 57 -13 17 -24 38 -24 47 0 8 -4 18 -10 21 -5 3
-21 30 -36 58 -14 29 -34 68 -46 87 -11 19 -31 55 -45 80 -13 25 -35 63 -48
85 -13 22 -24 46 -25 53 0 7 -13 31 -30 54 -16 22 -30 46 -30 53 0 7 -8 19
-18 28 -16 14 -43 17 -169 17 -82 0 -153 -3 -156 -7z"/>
</g>
</svg>
